<svg width="52" height="50" viewBox="0 0 52 50" fill="none" xmlns="http://www.w3.org/2000/svg">
<path id="Combined Shape" fill-rule="evenodd" clip-rule="evenodd" d="M28.2744 5.09355V0.104774L22.8308 0.0440674L20.79 3.43035L23.2848 5.92598L28.2744 5.09355ZM22.4532 10.9148L15.8004 4.26112L12.474 7.58835L18.1472 12.6412L22.4532 10.9148ZM29.4478 14.8058L26.1264 12.39L26.7301 9.67317L32.4324 9.25238L39.9168 15.0728L38.2536 20.0624L35.7588 21.7264L33.264 20.0624V17.5676L30.7692 14.2412L29.4478 14.8058ZM49.0644 47.5052H47.4012C46.942 47.5052 46.5696 47.1329 46.5696 46.6736C46.5696 46.2143 46.942 45.842 47.4012 45.842H49.0644C49.5237 45.842 49.896 46.2143 49.896 46.6736C49.896 47.1329 49.5237 47.5052 49.0644 47.5052ZM49.0644 35.8628H50.7277C51.1869 35.8628 51.5593 35.4905 51.5593 35.0312C51.5593 34.5719 51.1869 34.1996 50.7277 34.1996H49.0644C48.6052 34.1996 48.2328 34.5719 48.2328 35.0312C48.2328 35.4905 48.6052 35.8628 49.0644 35.8628ZM39.0852 35.4428L44.0748 32.1164V28.79L39.0852 23.8004L35.7588 27.1268L32.4324 23.8004L29.106 26.2952L32.4324 30.4532L29.9376 35.4428L27.4428 31.2848L21.6216 28.79L24.948 22.1372L27.4428 18.8108L21.6216 15.4844L18.2952 18.8108L7.48441 8L0.831601 15.4844L2.78586 23.536L0 26.2952L2.4948 33.7796L22.4532 43.7588L24.948 39.6008L29.9376 42.9272L33.264 49.58L37.422 42.9272H44.0748L44.9064 37.9376L39.0852 35.4428Z" fill="#0E8784"/>
</svg>
